<svg viewBox="0 0 256 16" xmlns="http://www.w3.org/2000/svg" stroke="currentColor" fill="none">
<line x1="0" y1="8" x2="256" y2="8" stroke-width="1"/>
<line x1="0" y1="4" x2="0" y2="12" stroke-width="1"/>
<line x1="32" y1="4" x2="32" y2="12" stroke-width="1"/>
<line x1="64" y1="4" x2="64" y2="12" stroke-width="1"/>
<line x1="96" y1="4" x2="96" y2="12" stroke-width="1"/>
<line x1="128" y1="4" x2="128" y2="12" stroke-width="1"/>
<line x1="160" y1="4" x2="160" y2="12" stroke-width="1"/>
<line x1="192" y1="4" x2="192" y2="12" stroke-width="1"/>
<line x1="224" y1="4" x2="224" y2="12" stroke-width="1"/>
<line x1="256" y1="4" x2="256" y2="12" stroke-width="1"/>
<line x1="8" y1="6" x2="8" y2="10" stroke-width="0.5"/>
<line x1="16" y1="6" x2="16" y2="10" stroke-width="0.5"/>
<line x1="24" y1="6" x2="24" y2="10" stroke-width="0.5"/>
<line x1="40" y1="6" x2="40" y2="10" stroke-width="0.5"/>
<line x1="48" y1="6" x2="48" y2="10" stroke-width="0.5"/>
<line x1="56" y1="6" x2="56" y2="10" stroke-width="0.5"/>
<line x1="72" y1="6" x2="72" y2="10" stroke-width="0.5"/>
<line x1="80" y1="6" x2="80" y2="10" stroke-width="0.5"/>
<line x1="88" y1="6" x2="88" y2="10" stroke-width="0.5"/>
<line x1="104" y1="6" x2="104" y2="10" stroke-width="0.5"/>
<line x1="112" y1="6" x2="112" y2="10" stroke-width="0.5"/>
<line x1="120" y1="6" x2="120" y2="10" stroke-width="0.5"/>
<line x1="136" y1="6" x2="136" y2="10" stroke-width="0.5"/>
<line x1="144" y1="6" x2="144" y2="10" stroke-width="0.5"/>
<line x1="152" y1="6" x2="152" y2="10" stroke-width="0.5"/>
<line x1="168" y1="6" x2="168" y2="10" stroke-width="0.5"/>
<line x1="176" y1="6" x2="176" y2="10" stroke-width="0.5"/>
<line x1="184" y1="6" x2="184" y2="10" stroke-width="0.5"/>
<line x1="200" y1="6" x2="200" y2="10" stroke-width="0.5"/>
<line x1="208" y1="6" x2="208" y2="10" stroke-width="0.5"/>
<line x1="216" y1="6" x2="216" y2="10" stroke-width="0.5"/>
<line x1="232" y1="6" x2="232" y2="10" stroke-width="0.5"/>
<line x1="240" y1="6" x2="240" y2="10" stroke-width="0.5"/>
<line x1="248" y1="6" x2="248" y2="10" stroke-width="0.5"/>
</svg>
